<svg width="68" height="69" viewBox="0 0 68 69" fill="none" xmlns="http://www.w3.org/2000/svg">
<path fill-rule="evenodd" clip-rule="evenodd" d="M25.1388 14.4246H62.8887L40.4672 29.7954L25.2158 19.34C25.7965 17.7851 25.8014 16.0276 25.1388 14.4246ZM15.2659 23.3459L20.7683 19.9955C22.4012 19.0013 22.9432 16.88 21.9873 15.2242L17.0197 6.62012C16.5101 5.73732 15.7387 5.16941 14.7445 4.94496C13.7501 4.72037 12.8098 4.90166 11.9701 5.47979L2.91074 11.7172C-1.40155 26.9115 17.977 59.8065 32.8392 63.5547L42.7707 58.8278C43.6911 58.3898 44.3184 57.6659 44.621 56.6926C44.9237 55.7192 44.8176 54.7673 44.3079 53.8845L39.3403 45.2804C38.3844 43.6246 36.2763 43.0333 34.5987 43.9504L28.9461 47.0404C23.356 42.0688 16.7765 30.6729 15.2659 23.3459ZM65.6305 16.4014L41.3637 33.0372C40.7959 33.4247 40.0664 33.3945 39.5387 33.0153L23.4285 21.9713C23.1233 22.2463 22.7891 22.4971 22.4259 22.7182L18.9457 24.8371C20.7742 30.7379 25.2984 38.5741 29.4945 43.108L33.0697 41.1535C36.2641 39.4073 40.2803 40.5338 42.1005 43.6866L45.1812 49.0225H63.1253C64.5421 49.0225 65.7013 47.8633 65.7013 46.4465V17.0006C65.7014 16.7945 65.6767 16.5938 65.6305 16.4014Z" fill="#131313"/>
</svg>
