<svg width="420" height="340" viewBox="0 0 420 340" fill="none" xmlns="http://www.w3.org/2000/svg">
<path opacity="0.15" d="M421.997 339.387L387.279 338.619L386.425 206.351L369.864 201.111L371.464 137.462M371.464 137.462L371.902 120.115L269.978 32.0846L188.852 53.2687L190.182 188.99L271.443 182.785L272.286 183.099M371.464 137.462L271.436 54.8199L272.286 183.099M371.464 137.462L377.2 142.201L376.71 162.454L387.347 167.322L389.719 117.519L271.136 1.37207L41.0144 78.2938L41.6813 178.619L140.455 159.603L140.413 145.997L92.1695 155.105L91.2628 115.052L147.341 101.553L146.97 193.772M272.286 183.099L370.947 219.643L370.865 247.704L272.518 217.756M272.286 183.099L272.518 217.756M272.518 217.756L273.286 333.563L208.5 331.783L209.089 225.061L272.11 217.63L272.518 217.756ZM146.97 193.772L146.468 319.448L75.8372 318.115L75.144 240.015L25.5138 241.089L25.5438 319.175L10.7327 318.137L11.4595 204.608L146.97 193.772ZM146.97 193.772L188.758 190.43L188.211 332.85L38.5565 331.735C38.5565 331.735 18.0914 331.174 -1.99524 330.634" stroke="#131313" stroke-miterlimit="42.9931" stroke-linejoin="round"/>
</svg>
