<svg width="23" height="18" viewBox="0 0 23 18" fill="none" xmlns="http://www.w3.org/2000/svg">
<path d="M18.5704 17.5249H5.09143C2.70928 17.5249 0.77124 15.5869 0.77124 13.2047V4.56433C0.77124 2.18218 2.70928 0.244141 5.09143 0.244141H18.5704C20.9526 0.244141 22.8906 2.18218 22.8906 4.56433V13.2047C22.8906 15.5869 20.9526 17.5249 18.5704 17.5249ZM5.09143 1.97222C3.66214 1.97222 2.49932 3.13504 2.49932 4.56433V13.2047C2.49932 14.634 3.66214 15.7968 5.09143 15.7968H18.5704C19.9997 15.7968 21.1625 14.634 21.1625 13.2047V4.56433C21.1625 3.13504 19.9997 1.97222 18.5704 1.97222H5.09143Z" fill="#131313"/>
<path d="M15.6031 8.86685L19.1909 5.16669C19.5231 4.8241 19.5146 4.27708 19.1721 3.9449C18.8295 3.61272 18.2825 3.62114 17.9503 3.96373L12.4381 9.6485C12.1022 9.9802 11.56 9.9802 11.224 9.6485L5.71189 3.96373C5.37976 3.62114 4.83273 3.61272 4.4901 3.9449C4.14751 4.27708 4.13908 4.8241 4.47126 5.16669L8.05905 8.86685L4.46828 12.6072C4.13783 12.9515 4.14898 13.4984 4.49321 13.8289C4.83736 14.1593 5.38434 14.1483 5.71487 13.804L9.26274 10.1083L9.9888 10.8571C9.99186 10.8603 9.99502 10.8634 9.99813 10.8666C10.5035 11.3719 11.1673 11.6246 11.831 11.6246C12.4948 11.6246 13.1586 11.3719 13.6639 10.8666C13.667 10.8634 13.6702 10.8603 13.6732 10.8571L14.3993 10.1083L17.9471 13.804C18.2775 14.1481 18.8245 14.1595 19.1688 13.8289C19.513 13.4984 19.5242 12.9515 19.1937 12.6072L15.6031 8.86685Z" fill="#131313"/>
</svg>
